# xmcd CD database file
#
# Track frame offsets:
#	150
#	18625
#	42267
#	60665
#
# Disc length: 1120 seconds
#
# Revision: 0
# Processed by: cddbd v1.5PL3 Copyright (c) Steve Scherf et al.
# Submitted via: CDex 1.50
#
DISCID=2e045e04
DTITLE=松永俊彦 - Ｆｌｙ Ｈｉｇｈ
DYEAR=2004
DGENRE=JPop
TTITLE0=FLY HIGH
TTITLE1=未来の記憶
TTITLE2=FLY HIGH（Instrumental)
TTITLE3=未来の記憶（Instrumental)
EXTD=YEAR: 2004
EXTT0=
EXTT1=
EXTT2=
EXTT3=
PLAYORDER=
